<svg width="30" height="30" viewBox="0 0 30 30" fill="none" xmlns="http://www.w3.org/2000/svg">
<path d="M16.5773 18.5842L19.6779 21.6848C19.2043 22.5881 19.1555 23.4866 19.6535 23.9846L25.3127 29.6438C26.0256 30.3567 27.5784 29.9661 28.7698 28.7698C29.9661 27.5735 30.3567 26.0256 29.6438 25.3127L23.9895 19.6535C23.4866 19.1555 22.5881 19.2043 21.6848 19.673L18.5842 16.5773L16.5773 18.5842ZM10.6251 0C4.7559 0 0 4.7559 0 10.6251C0 16.4943 4.7559 21.2502 10.6251 21.2502C16.4943 21.2502 21.2502 16.4943 21.2502 10.6251C21.2502 4.7559 16.4943 0 10.6251 0ZM10.6251 18.7502C6.13775 18.7502 2.50002 15.1124 2.50002 10.6251C2.50002 6.13775 6.13775 2.50002 10.6251 2.50002C15.1124 2.50002 18.7502 6.13775 18.7502 10.6251C18.7502 15.1124 15.1124 18.7502 10.6251 18.7502Z" fill="white"/>
</svg>
