<svg width="14" height="14" viewBox="0 0 14 14" fill="none" xmlns="http://www.w3.org/2000/svg">
<path fill-rule="evenodd" clip-rule="evenodd" d="M5.27807 1.75C3.32957 1.75 1.75 3.32957 1.75 5.27807C1.75 7.22656 3.32957 8.80613 5.27807 8.80613C7.22656 8.80613 8.80613 7.22656 8.80613 5.27807C8.80613 3.32957 7.22656 1.75 5.27807 1.75ZM0.25 5.27807C0.25 2.50114 2.50114 0.25 5.27807 0.25C8.05499 0.25 10.3061 2.50114 10.3061 5.27807C10.3061 8.05499 8.05499 10.3061 5.27807 10.3061C2.50114 10.3061 0.25 8.05499 0.25 5.27807ZM10.4549 9.39449L13.5303 12.4699L12.4697 13.5305L9.39429 10.4552L10.4549 9.39449Z" fill="black"/>
</svg>
