<svg width="15" height="16" viewBox="0 0 15 16" fill="none" xmlns="http://www.w3.org/2000/svg">
<path fill-rule="evenodd" clip-rule="evenodd" d="M5.67915 2.19423C3.47834 2.19423 1.69423 3.97834 1.69423 6.17915C1.69423 8.37996 3.47834 10.1641 5.67915 10.1641C7.87996 10.1641 9.66407 8.37996 9.66407 6.17915C9.66407 3.97834 7.87996 2.19423 5.67915 2.19423ZM0 6.17915C0 3.04264 2.54264 0.5 5.67915 0.5C8.81566 0.5 11.3583 3.04264 11.3583 6.17915C11.3583 9.31566 8.81566 11.8583 5.67915 11.8583C2.54264 11.8583 0 9.31566 0 6.17915ZM11.5264 10.8286L15 14.3022L13.802 15.5002L10.3284 12.0266L11.5264 10.8286Z" fill="white"/>
</svg>
