<svg width="14" height="14" viewBox="0 0 14 14" fill="none" xmlns="http://www.w3.org/2000/svg">
<path fill-rule="evenodd" clip-rule="evenodd" d="M5.02807 1.5C3.07957 1.5 1.5 3.07957 1.5 5.02807C1.5 6.97656 3.07957 8.55613 5.02807 8.55613C6.97656 8.55613 8.55613 6.97656 8.55613 5.02807C8.55613 3.07957 6.97656 1.5 5.02807 1.5ZM0 5.02807C0 2.25114 2.25114 0 5.02807 0C7.80499 0 10.0561 2.25114 10.0561 5.02807C10.0561 7.80499 7.80499 10.0561 5.02807 10.0561C2.25114 10.0561 0 7.80499 0 5.02807ZM10.2049 9.14449L13.2803 12.2199L12.2197 13.2805L9.14429 10.2052L10.2049 9.14449Z" fill="white"/>
</svg>
