<svg width="30" height="31" viewBox="0 0 30 31" fill="none" xmlns="http://www.w3.org/2000/svg">
<path d="M16.5773 19.0842L19.6779 22.1848C19.2043 23.0881 19.1555 23.9866 19.6535 24.4846L25.3127 30.1438C26.0256 30.8567 27.5784 30.4661 28.7698 29.2698C29.9661 28.0735 30.3567 26.5256 29.6438 25.8127L23.9895 20.1535C23.4866 19.6555 22.5881 19.7043 21.6848 20.173L18.5842 17.0773L16.5773 19.0842ZM10.6251 0.5C4.7559 0.5 0 5.2559 0 11.1251C0 16.9943 4.7559 21.7502 10.6251 21.7502C16.4943 21.7502 21.2502 16.9943 21.2502 11.1251C21.2502 5.2559 16.4943 0.5 10.6251 0.5ZM10.6251 19.2502C6.13775 19.2502 2.50002 15.6124 2.50002 11.1251C2.50002 6.63775 6.13775 3.00002 10.6251 3.00002C15.1124 3.00002 18.7502 6.63775 18.7502 11.1251C18.7502 15.6124 15.1124 19.2502 10.6251 19.2502Z" fill="white"/>
</svg>
